<mxfile host="www.draw.io" modified="2019-11-09T16:54:47.117Z" agent="Mozilla/5.0 (Windows NT 10.0; Win64; x64) AppleWebKit/537.36 (KHTML, like Gecko) Chrome/78.0.3904.87 Safari/537.36" etag="BrxXqA5bMAA3HgEoJAvA" version="12.2.3" type="github" pages="1">
  <diagram id="gRyEUZcvLZxOhSxeW6BI" name="Page-1">
    <mxGraphModel dx="4946" dy="1940" grid="1" gridSize="10" guides="1" tooltips="1" connect="1" arrows="1" fold="1" page="1" pageScale="1" pageWidth="850" pageHeight="1100" math="0" shadow="0">
      <root>
        <mxCell id="0"/>
        <mxCell id="1" parent="0"/>
        <mxCell id="wVtc7gsRaQQJsOWC-e6A-9" value="&lt;font size=&quot;3&quot;&gt;ورزشکار&lt;/font&gt;" style="shape=umlActor;verticalLabelPosition=bottom;labelBackgroundColor=#ffffff;verticalAlign=top;html=1;outlineConnect=0;strokeWidth=3;" parent="1" vertex="1">
          <mxGeometry x="-498" y="40" width="70" height="140" as="geometry"/>
        </mxCell>
        <mxCell id="wVtc7gsRaQQJsOWC-e6A-10" value="&lt;font style=&quot;font-size: 24px&quot;&gt;مربی&lt;/font&gt;" style="shape=umlActor;verticalLabelPosition=bottom;labelBackgroundColor=#ffffff;verticalAlign=top;html=1;outlineConnect=0;strokeWidth=3;" parent="1" vertex="1">
          <mxGeometry x="1520" y="20" width="50" height="140" as="geometry"/>
        </mxCell>
        <mxCell id="wVtc7gsRaQQJsOWC-e6A-11" value="&lt;font style=&quot;font-size: 24px&quot;&gt;مدیر&lt;/font&gt;" style="shape=umlActor;verticalLabelPosition=bottom;labelBackgroundColor=#ffffff;verticalAlign=top;html=1;outlineConnect=0;strokeWidth=3;" parent="1" vertex="1">
          <mxGeometry x="400" y="40" width="60" height="120" as="geometry"/>
        </mxCell>
        <mxCell id="wVtc7gsRaQQJsOWC-e6A-13" value="" style="whiteSpace=wrap;html=1;aspect=fixed;fillColor=#d5e8d4;strokeColor=#82b366;strokeWidth=3;" parent="1" vertex="1">
          <mxGeometry x="-702" y="233.5" width="2273" height="2273" as="geometry"/>
        </mxCell>
        <mxCell id="wVtc7gsRaQQJsOWC-e6A-16" value="&lt;font style=&quot;font-size: 18px&quot;&gt;ثبت نام&lt;/font&gt;" style="ellipse;whiteSpace=wrap;html=1;strokeWidth=3;" parent="1" vertex="1">
          <mxGeometry x="400" y="510" width="60" height="40" as="geometry"/>
        </mxCell>
        <mxCell id="wVtc7gsRaQQJsOWC-e6A-17" value="" style="endArrow=none;html=1;strokeWidth=3;" parent="1" source="wVtc7gsRaQQJsOWC-e6A-9" target="wVtc7gsRaQQJsOWC-e6A-16" edge="1">
          <mxGeometry width="50" height="50" relative="1" as="geometry">
            <mxPoint x="30" y="1120" as="sourcePoint"/>
            <mxPoint x="80" y="1070" as="targetPoint"/>
          </mxGeometry>
        </mxCell>
        <mxCell id="wVtc7gsRaQQJsOWC-e6A-18" value="" style="endArrow=none;html=1;strokeWidth=3;" parent="1" source="wVtc7gsRaQQJsOWC-e6A-10" target="wVtc7gsRaQQJsOWC-e6A-16" edge="1">
          <mxGeometry width="50" height="50" relative="1" as="geometry">
            <mxPoint x="30" y="1120" as="sourcePoint"/>
            <mxPoint x="80" y="1070" as="targetPoint"/>
          </mxGeometry>
        </mxCell>
        <mxCell id="wVtc7gsRaQQJsOWC-e6A-19" value="" style="endArrow=classic;html=1;entryX=0.5;entryY=0;entryDx=0;entryDy=0;dashed=1;strokeWidth=3;" parent="1" source="wVtc7gsRaQQJsOWC-e6A-16" target="wVtc7gsRaQQJsOWC-e6A-20" edge="1">
          <mxGeometry width="50" height="50" relative="1" as="geometry">
            <mxPoint x="30" y="1120" as="sourcePoint"/>
            <mxPoint x="150" y="540" as="targetPoint"/>
          </mxGeometry>
        </mxCell>
        <mxCell id="wVtc7gsRaQQJsOWC-e6A-20" value="&lt;font style=&quot;font-size: 18px&quot;&gt;ورود اطلاعات&amp;nbsp;&lt;/font&gt;" style="ellipse;whiteSpace=wrap;html=1;strokeWidth=3;" parent="1" vertex="1">
          <mxGeometry x="370" y="570" width="80" height="40" as="geometry"/>
        </mxCell>
        <mxCell id="wVtc7gsRaQQJsOWC-e6A-22" value="" style="endArrow=classic;html=1;exitX=1;exitY=1;exitDx=0;exitDy=0;entryX=0.5;entryY=0;entryDx=0;entryDy=0;dashed=1;strokeWidth=3;" parent="1" source="wVtc7gsRaQQJsOWC-e6A-16" target="wVtc7gsRaQQJsOWC-e6A-21" edge="1">
          <mxGeometry width="50" height="50" relative="1" as="geometry">
            <mxPoint x="30" y="1120" as="sourcePoint"/>
            <mxPoint x="80" y="1070" as="targetPoint"/>
          </mxGeometry>
        </mxCell>
        <mxCell id="wVtc7gsRaQQJsOWC-e6A-24" value="" style="endArrow=classic;html=1;exitX=0.5;exitY=1;exitDx=0;exitDy=0;entryX=1;entryY=0;entryDx=0;entryDy=0;dashed=1;strokeWidth=3;" parent="1" source="wVtc7gsRaQQJsOWC-e6A-23" target="wVtc7gsRaQQJsOWC-e6A-21" edge="1">
          <mxGeometry width="50" height="50" relative="1" as="geometry">
            <mxPoint x="30" y="1120" as="sourcePoint"/>
            <mxPoint x="80" y="1070" as="targetPoint"/>
            <Array as="points">
              <mxPoint x="480" y="640"/>
            </Array>
          </mxGeometry>
        </mxCell>
        <mxCell id="wVtc7gsRaQQJsOWC-e6A-27" value="" style="endArrow=none;html=1;exitX=1;exitY=1;exitDx=0;exitDy=0;exitPerimeter=0;entryX=0;entryY=0;entryDx=0;entryDy=0;strokeWidth=3;" parent="1" source="wVtc7gsRaQQJsOWC-e6A-9" target="wVtc7gsRaQQJsOWC-e6A-23" edge="1">
          <mxGeometry width="50" height="50" relative="1" as="geometry">
            <mxPoint x="200" y="230" as="sourcePoint"/>
            <mxPoint x="250" y="180" as="targetPoint"/>
          </mxGeometry>
        </mxCell>
        <mxCell id="wVtc7gsRaQQJsOWC-e6A-28" value="" style="endArrow=none;html=1;exitX=1;exitY=0;exitDx=0;exitDy=0;strokeWidth=3;" parent="1" source="wVtc7gsRaQQJsOWC-e6A-91" target="wVtc7gsRaQQJsOWC-e6A-10" edge="1">
          <mxGeometry width="50" height="50" relative="1" as="geometry">
            <mxPoint x="630" y="280" as="sourcePoint"/>
            <mxPoint x="680" y="230" as="targetPoint"/>
          </mxGeometry>
        </mxCell>
        <mxCell id="re556Kb_clme54Zi5AFt-2" style="edgeStyle=orthogonalEdgeStyle;rounded=0;orthogonalLoop=1;jettySize=auto;html=1;exitX=0;exitY=0;exitDx=0;exitDy=0;dashed=1;strokeWidth=3;" edge="1" parent="1" source="wVtc7gsRaQQJsOWC-e6A-30" target="wVtc7gsRaQQJsOWC-e6A-21">
          <mxGeometry relative="1" as="geometry"/>
        </mxCell>
        <mxCell id="wVtc7gsRaQQJsOWC-e6A-30" value="&lt;font style=&quot;font-size: 18px&quot;&gt;ورود نا موفق اصلاح شماره تلفن&lt;/font&gt;" style="ellipse;whiteSpace=wrap;html=1;direction=south;strokeWidth=3;" parent="1" vertex="1">
          <mxGeometry x="370" y="888.5" width="138" height="130" as="geometry"/>
        </mxCell>
        <mxCell id="wVtc7gsRaQQJsOWC-e6A-41" style="edgeStyle=orthogonalEdgeStyle;rounded=0;orthogonalLoop=1;jettySize=auto;html=1;exitX=0;exitY=1;exitDx=0;exitDy=0;entryX=0.5;entryY=0;entryDx=0;entryDy=0;dashed=1;strokeWidth=3;" parent="1" source="wVtc7gsRaQQJsOWC-e6A-37" target="wVtc7gsRaQQJsOWC-e6A-40" edge="1">
          <mxGeometry relative="1" as="geometry"/>
        </mxCell>
        <mxCell id="wVtc7gsRaQQJsOWC-e6A-37" value="&lt;font style=&quot;font-size: 24px&quot;&gt;مشاهده پروفایل&lt;/font&gt;" style="ellipse;whiteSpace=wrap;html=1;strokeWidth=3;" parent="1" vertex="1">
          <mxGeometry x="570" y="780" width="250" height="160" as="geometry"/>
        </mxCell>
        <mxCell id="wVtc7gsRaQQJsOWC-e6A-40" value="&lt;font size=&quot;3&quot;&gt;ویرایش اطلاعات&lt;/font&gt;" style="ellipse;whiteSpace=wrap;html=1;strokeWidth=3;" parent="1" vertex="1">
          <mxGeometry x="520" y="980" width="200" height="140" as="geometry"/>
        </mxCell>
        <mxCell id="wVtc7gsRaQQJsOWC-e6A-43" style="edgeStyle=orthogonalEdgeStyle;rounded=0;orthogonalLoop=1;jettySize=auto;html=1;exitX=1;exitY=0;exitDx=0;exitDy=0;entryX=0;entryY=1;entryDx=0;entryDy=0;dashed=1;strokeWidth=3;" parent="1" source="wVtc7gsRaQQJsOWC-e6A-42" target="wVtc7gsRaQQJsOWC-e6A-40" edge="1">
          <mxGeometry relative="1" as="geometry"/>
        </mxCell>
        <mxCell id="wVtc7gsRaQQJsOWC-e6A-42" value="&lt;font style=&quot;font-size: 18px&quot;&gt;وارد کردن اطلاهات نا مربوط&lt;/font&gt;" style="ellipse;whiteSpace=wrap;html=1;strokeWidth=3;" parent="1" vertex="1">
          <mxGeometry x="425" y="1130" width="146" height="150" as="geometry"/>
        </mxCell>
        <mxCell id="wVtc7gsRaQQJsOWC-e6A-48" style="edgeStyle=orthogonalEdgeStyle;rounded=0;orthogonalLoop=1;jettySize=auto;html=1;exitX=0;exitY=1;exitDx=0;exitDy=0;entryX=0.5;entryY=0;entryDx=0;entryDy=0;dashed=1;strokeWidth=3;" parent="1" source="wVtc7gsRaQQJsOWC-e6A-45" target="wVtc7gsRaQQJsOWC-e6A-47" edge="1">
          <mxGeometry relative="1" as="geometry"/>
        </mxCell>
        <mxCell id="wVtc7gsRaQQJsOWC-e6A-45" value="&lt;font size=&quot;3&quot;&gt;جستجوی مربی ها&lt;/font&gt;" style="ellipse;whiteSpace=wrap;html=1;strokeWidth=3;" parent="1" vertex="1">
          <mxGeometry x="860" y="400" width="150" height="120" as="geometry"/>
        </mxCell>
        <mxCell id="wVtc7gsRaQQJsOWC-e6A-47" value="&lt;font size=&quot;3&quot;&gt;فیلتر کردن مربیان&lt;/font&gt;" style="ellipse;whiteSpace=wrap;html=1;strokeWidth=3;" parent="1" vertex="1">
          <mxGeometry x="650" y="545" width="170" height="130" as="geometry"/>
        </mxCell>
        <mxCell id="wVtc7gsRaQQJsOWC-e6A-51" value="&lt;font size=&quot;3&quot;&gt;&lt;b&gt;درخواست مربی&lt;/b&gt;&lt;/font&gt;" style="ellipse;whiteSpace=wrap;html=1;strokeWidth=3;" parent="1" vertex="1">
          <mxGeometry x="-380" y="740" width="190" height="240" as="geometry"/>
        </mxCell>
        <mxCell id="wVtc7gsRaQQJsOWC-e6A-54" value="" style="endArrow=classic;html=1;exitX=0.5;exitY=1;exitDx=0;exitDy=0;entryX=0.5;entryY=0;entryDx=0;entryDy=0;dashed=1;strokeWidth=3;" parent="1" source="wVtc7gsRaQQJsOWC-e6A-51" target="wVtc7gsRaQQJsOWC-e6A-55" edge="1">
          <mxGeometry width="50" height="50" relative="1" as="geometry">
            <mxPoint x="-130" y="870" as="sourcePoint"/>
            <mxPoint x="-80" y="810" as="targetPoint"/>
          </mxGeometry>
        </mxCell>
        <mxCell id="wVtc7gsRaQQJsOWC-e6A-62" style="edgeStyle=orthogonalEdgeStyle;rounded=0;orthogonalLoop=1;jettySize=auto;html=1;exitX=0.5;exitY=1;exitDx=0;exitDy=0;entryX=0.5;entryY=0;entryDx=0;entryDy=0;dashed=1;strokeWidth=3;" parent="1" source="wVtc7gsRaQQJsOWC-e6A-55" target="wVtc7gsRaQQJsOWC-e6A-60" edge="1">
          <mxGeometry relative="1" as="geometry"/>
        </mxCell>
        <mxCell id="wVtc7gsRaQQJsOWC-e6A-63" style="edgeStyle=orthogonalEdgeStyle;rounded=0;orthogonalLoop=1;jettySize=auto;html=1;exitX=1;exitY=1;exitDx=0;exitDy=0;entryX=0.5;entryY=0;entryDx=0;entryDy=0;dashed=1;strokeWidth=3;" parent="1" source="wVtc7gsRaQQJsOWC-e6A-55" target="wVtc7gsRaQQJsOWC-e6A-61" edge="1">
          <mxGeometry relative="1" as="geometry"/>
        </mxCell>
        <mxCell id="wVtc7gsRaQQJsOWC-e6A-55" value="&lt;font size=&quot;3&quot;&gt;درخواست برنامه&lt;/font&gt;" style="ellipse;whiteSpace=wrap;html=1;strokeWidth=3;" parent="1" vertex="1">
          <mxGeometry x="-400" y="1055" width="160" height="230" as="geometry"/>
        </mxCell>
        <mxCell id="wVtc7gsRaQQJsOWC-e6A-57" value="" style="endArrow=none;html=1;exitX=0.5;exitY=0;exitDx=0;exitDy=0;strokeWidth=3;" parent="1" source="wVtc7gsRaQQJsOWC-e6A-51" target="wVtc7gsRaQQJsOWC-e6A-9" edge="1">
          <mxGeometry width="50" height="50" relative="1" as="geometry">
            <mxPoint x="-70" y="530" as="sourcePoint"/>
            <mxPoint x="-20" y="480" as="targetPoint"/>
          </mxGeometry>
        </mxCell>
        <mxCell id="wVtc7gsRaQQJsOWC-e6A-58" value="" style="endArrow=none;html=1;exitX=0.5;exitY=0;exitDx=0;exitDy=0;strokeWidth=3;" parent="1" source="wVtc7gsRaQQJsOWC-e6A-37" target="wVtc7gsRaQQJsOWC-e6A-10" edge="1">
          <mxGeometry width="50" height="50" relative="1" as="geometry">
            <mxPoint x="550" y="410" as="sourcePoint"/>
            <mxPoint x="670" y="350" as="targetPoint"/>
          </mxGeometry>
        </mxCell>
        <mxCell id="wVtc7gsRaQQJsOWC-e6A-59" value="" style="endArrow=none;html=1;exitX=0.253;exitY=0.015;exitDx=0;exitDy=0;exitPerimeter=0;strokeWidth=3;" parent="1" source="wVtc7gsRaQQJsOWC-e6A-21" target="wVtc7gsRaQQJsOWC-e6A-9" edge="1">
          <mxGeometry width="50" height="50" relative="1" as="geometry">
            <mxPoint x="503.72428801641945" y="421.23586940457267" as="sourcePoint"/>
            <mxPoint x="560" y="390" as="targetPoint"/>
            <Array as="points">
              <mxPoint x="400" y="640"/>
            </Array>
          </mxGeometry>
        </mxCell>
        <mxCell id="wVtc7gsRaQQJsOWC-e6A-60" value="&lt;font style=&quot;font-size: 24px&quot;&gt;گرفتن برنامه غذایی&lt;/font&gt;" style="ellipse;whiteSpace=wrap;html=1;strokeWidth=3;" parent="1" vertex="1">
          <mxGeometry x="-618" y="1408" width="240" height="232" as="geometry"/>
        </mxCell>
        <mxCell id="wVtc7gsRaQQJsOWC-e6A-61" value="&lt;font style=&quot;font-size: 24px&quot;&gt;برنامه تمرینی&lt;br&gt;گرفتن&lt;br&gt;&lt;/font&gt;" style="ellipse;whiteSpace=wrap;html=1;strokeWidth=3;" parent="1" vertex="1">
          <mxGeometry x="-230" y="1408" width="230" height="240" as="geometry"/>
        </mxCell>
        <mxCell id="wVtc7gsRaQQJsOWC-e6A-64" value="&lt;font style=&quot;font-size: 23px&quot;&gt;&lt;b&gt;مشاهده برنامه های دریافت شده&lt;/b&gt;&lt;/font&gt;" style="ellipse;whiteSpace=wrap;html=1;strokeWidth=3;" parent="1" vertex="1">
          <mxGeometry x="-675" y="878.5" width="247" height="230" as="geometry"/>
        </mxCell>
        <mxCell id="wVtc7gsRaQQJsOWC-e6A-65" value="" style="endArrow=none;html=1;strokeWidth=3;" parent="1" source="wVtc7gsRaQQJsOWC-e6A-64" target="wVtc7gsRaQQJsOWC-e6A-9" edge="1">
          <mxGeometry width="50" height="50" relative="1" as="geometry">
            <mxPoint y="650" as="sourcePoint"/>
            <mxPoint x="50" y="600" as="targetPoint"/>
          </mxGeometry>
        </mxCell>
        <mxCell id="wVtc7gsRaQQJsOWC-e6A-66" value="&lt;font style=&quot;font-size: 18px&quot;&gt;مشاهده برنامه های داده شده&lt;/font&gt;" style="ellipse;whiteSpace=wrap;html=1;strokeWidth=3;" parent="1" vertex="1">
          <mxGeometry x="1320" y="770" width="180" height="170" as="geometry"/>
        </mxCell>
        <mxCell id="wVtc7gsRaQQJsOWC-e6A-67" value="" style="endArrow=none;html=1;exitX=0.5;exitY=0;exitDx=0;exitDy=0;strokeWidth=3;" parent="1" source="wVtc7gsRaQQJsOWC-e6A-66" target="wVtc7gsRaQQJsOWC-e6A-10" edge="1">
          <mxGeometry width="50" height="50" relative="1" as="geometry">
            <mxPoint x="770" y="740" as="sourcePoint"/>
            <mxPoint x="820" y="690" as="targetPoint"/>
          </mxGeometry>
        </mxCell>
        <mxCell id="wVtc7gsRaQQJsOWC-e6A-73" style="edgeStyle=orthogonalEdgeStyle;rounded=0;orthogonalLoop=1;jettySize=auto;html=1;exitX=0;exitY=1;exitDx=0;exitDy=0;entryX=0.5;entryY=0;entryDx=0;entryDy=0;dashed=1;strokeWidth=3;" parent="1" source="wVtc7gsRaQQJsOWC-e6A-68" target="wVtc7gsRaQQJsOWC-e6A-70" edge="1">
          <mxGeometry relative="1" as="geometry"/>
        </mxCell>
        <mxCell id="wVtc7gsRaQQJsOWC-e6A-74" style="edgeStyle=orthogonalEdgeStyle;rounded=0;orthogonalLoop=1;jettySize=auto;html=1;exitX=1;exitY=1;exitDx=0;exitDy=0;entryX=0.5;entryY=0;entryDx=0;entryDy=0;dashed=1;strokeWidth=3;" parent="1" source="wVtc7gsRaQQJsOWC-e6A-68" target="wVtc7gsRaQQJsOWC-e6A-71" edge="1">
          <mxGeometry relative="1" as="geometry"/>
        </mxCell>
        <mxCell id="wVtc7gsRaQQJsOWC-e6A-68" value="&lt;font style=&quot;font-size: 24px&quot;&gt;ارسال برنامه&lt;/font&gt;" style="ellipse;whiteSpace=wrap;html=1;strokeWidth=3;" parent="1" vertex="1">
          <mxGeometry x="1140" y="954" width="170" height="197" as="geometry"/>
        </mxCell>
        <mxCell id="wVtc7gsRaQQJsOWC-e6A-69" value="" style="endArrow=none;html=1;entryX=0.5;entryY=0;entryDx=0;entryDy=0;strokeWidth=3;" parent="1" target="wVtc7gsRaQQJsOWC-e6A-68" edge="1">
          <mxGeometry width="50" height="50" relative="1" as="geometry">
            <mxPoint x="1530" y="140" as="sourcePoint"/>
            <mxPoint x="990" y="430" as="targetPoint"/>
          </mxGeometry>
        </mxCell>
        <mxCell id="wVtc7gsRaQQJsOWC-e6A-70" value="&lt;span style=&quot;font-size: 24px&quot;&gt;برنامه تمرینی&lt;/span&gt;&lt;br style=&quot;font-size: 24px&quot;&gt;&lt;span style=&quot;font-size: 24px&quot;&gt;گرفتن&lt;/span&gt;" style="ellipse;whiteSpace=wrap;html=1;strokeWidth=3;" parent="1" vertex="1">
          <mxGeometry x="910" y="1480" width="240" height="270" as="geometry"/>
        </mxCell>
        <mxCell id="wVtc7gsRaQQJsOWC-e6A-71" value="&lt;span style=&quot;font-size: 24px&quot;&gt;گرفتن برنامه غذایی&lt;/span&gt;" style="ellipse;whiteSpace=wrap;html=1;strokeWidth=3;" parent="1" vertex="1">
          <mxGeometry x="1250" y="1408" width="240" height="180" as="geometry"/>
        </mxCell>
        <mxCell id="wVtc7gsRaQQJsOWC-e6A-75" value="&lt;span style=&quot;font-size: 24px&quot;&gt;چت کردن و سیستم چت&lt;br&gt;&lt;/span&gt;" style="ellipse;whiteSpace=wrap;html=1;strokeWidth=3;" parent="1" vertex="1">
          <mxGeometry x="354.5" y="1370" width="200" height="150" as="geometry"/>
        </mxCell>
        <mxCell id="wVtc7gsRaQQJsOWC-e6A-76" value="" style="endArrow=none;html=1;entryX=0;entryY=1;entryDx=0;entryDy=0;entryPerimeter=0;strokeWidth=3;" parent="1" source="wVtc7gsRaQQJsOWC-e6A-75" target="wVtc7gsRaQQJsOWC-e6A-10" edge="1">
          <mxGeometry width="50" height="50" relative="1" as="geometry">
            <mxPoint x="690" y="460" as="sourcePoint"/>
            <mxPoint x="740" y="410" as="targetPoint"/>
          </mxGeometry>
        </mxCell>
        <mxCell id="wVtc7gsRaQQJsOWC-e6A-78" value="&lt;font style=&quot;font-size: 24px&quot;&gt;پرداخت&lt;/font&gt;" style="ellipse;whiteSpace=wrap;html=1;strokeWidth=3;" parent="1" vertex="1">
          <mxGeometry x="430" y="1700" width="170" height="170" as="geometry"/>
        </mxCell>
        <mxCell id="wVtc7gsRaQQJsOWC-e6A-79" value="" style="endArrow=none;html=1;strokeWidth=3;" parent="1" source="wVtc7gsRaQQJsOWC-e6A-78" target="wVtc7gsRaQQJsOWC-e6A-10" edge="1">
          <mxGeometry width="50" height="50" relative="1" as="geometry">
            <mxPoint x="590" y="1170" as="sourcePoint"/>
            <mxPoint x="640" y="1120" as="targetPoint"/>
          </mxGeometry>
        </mxCell>
        <mxCell id="wVtc7gsRaQQJsOWC-e6A-80" value="" style="endArrow=none;html=1;strokeWidth=3;" parent="1" source="wVtc7gsRaQQJsOWC-e6A-78" target="wVtc7gsRaQQJsOWC-e6A-9" edge="1">
          <mxGeometry width="50" height="50" relative="1" as="geometry">
            <mxPoint x="250" y="1140" as="sourcePoint"/>
            <mxPoint x="300" y="1090" as="targetPoint"/>
          </mxGeometry>
        </mxCell>
        <mxCell id="wVtc7gsRaQQJsOWC-e6A-92" value="" style="edgeStyle=orthogonalEdgeStyle;rounded=0;orthogonalLoop=1;jettySize=auto;html=1;dashed=1;strokeWidth=3;" parent="1" source="wVtc7gsRaQQJsOWC-e6A-81" target="wVtc7gsRaQQJsOWC-e6A-91" edge="1">
          <mxGeometry relative="1" as="geometry"/>
        </mxCell>
        <mxCell id="wVtc7gsRaQQJsOWC-e6A-81" value="&lt;font style=&quot;font-size: 24px&quot;&gt;پشتیبانی&lt;/font&gt;" style="ellipse;whiteSpace=wrap;html=1;strokeWidth=3;" parent="1" vertex="1">
          <mxGeometry x="370" y="270" width="120" height="80" as="geometry"/>
        </mxCell>
        <mxCell id="wVtc7gsRaQQJsOWC-e6A-82" value="" style="endArrow=none;html=1;strokeWidth=3;" parent="1" source="wVtc7gsRaQQJsOWC-e6A-81" target="wVtc7gsRaQQJsOWC-e6A-11" edge="1">
          <mxGeometry width="50" height="50" relative="1" as="geometry">
            <mxPoint x="380" y="560" as="sourcePoint"/>
            <mxPoint x="430" y="510" as="targetPoint"/>
          </mxGeometry>
        </mxCell>
        <mxCell id="wVtc7gsRaQQJsOWC-e6A-83" value="" style="endArrow=none;html=1;strokeWidth=3;" parent="1" source="wVtc7gsRaQQJsOWC-e6A-9" target="wVtc7gsRaQQJsOWC-e6A-81" edge="1">
          <mxGeometry width="50" height="50" relative="1" as="geometry">
            <mxPoint x="60" y="1280" as="sourcePoint"/>
            <mxPoint x="110" y="1230" as="targetPoint"/>
          </mxGeometry>
        </mxCell>
        <mxCell id="wVtc7gsRaQQJsOWC-e6A-84" value="" style="endArrow=none;html=1;strokeWidth=3;" parent="1" source="wVtc7gsRaQQJsOWC-e6A-81" edge="1">
          <mxGeometry width="50" height="50" relative="1" as="geometry">
            <mxPoint x="810" y="650" as="sourcePoint"/>
            <mxPoint x="1530" y="120" as="targetPoint"/>
          </mxGeometry>
        </mxCell>
        <mxCell id="wVtc7gsRaQQJsOWC-e6A-86" style="edgeStyle=orthogonalEdgeStyle;rounded=0;orthogonalLoop=1;jettySize=auto;html=1;exitX=0.5;exitY=0;exitDx=0;exitDy=0;dashed=1;strokeWidth=3;" parent="1" source="wVtc7gsRaQQJsOWC-e6A-85" target="wVtc7gsRaQQJsOWC-e6A-78" edge="1">
          <mxGeometry relative="1" as="geometry"/>
        </mxCell>
        <mxCell id="wVtc7gsRaQQJsOWC-e6A-85" value="&lt;font size=&quot;3&quot;&gt;پرداخت ناموفق&lt;/font&gt;" style="ellipse;whiteSpace=wrap;html=1;strokeWidth=3;" parent="1" vertex="1">
          <mxGeometry x="455" y="2060" width="245" height="210" as="geometry"/>
        </mxCell>
        <mxCell id="wVtc7gsRaQQJsOWC-e6A-88" value="" style="endArrow=none;html=1;entryX=0.5;entryY=0.5;entryDx=0;entryDy=0;entryPerimeter=0;exitX=0.5;exitY=0;exitDx=0;exitDy=0;strokeWidth=3;" parent="1" source="wVtc7gsRaQQJsOWC-e6A-45" target="wVtc7gsRaQQJsOWC-e6A-10" edge="1">
          <mxGeometry width="50" height="50" relative="1" as="geometry">
            <mxPoint x="520" y="440" as="sourcePoint"/>
            <mxPoint x="570" y="390" as="targetPoint"/>
          </mxGeometry>
        </mxCell>
        <mxCell id="wVtc7gsRaQQJsOWC-e6A-90" value="" style="endArrow=none;html=1;entryX=1;entryY=1;entryDx=0;entryDy=0;entryPerimeter=0;exitX=0.5;exitY=0;exitDx=0;exitDy=0;strokeWidth=3;" parent="1" source="wVtc7gsRaQQJsOWC-e6A-45" target="wVtc7gsRaQQJsOWC-e6A-11" edge="1">
          <mxGeometry width="50" height="50" relative="1" as="geometry">
            <mxPoint x="490" y="480" as="sourcePoint"/>
            <mxPoint x="540" y="430" as="targetPoint"/>
          </mxGeometry>
        </mxCell>
        <mxCell id="wVtc7gsRaQQJsOWC-e6A-21" value="&lt;font style=&quot;font-size: 18px&quot;&gt;تایید شماره تلفن&lt;/font&gt;" style="ellipse;whiteSpace=wrap;html=1;strokeWidth=3;" parent="1" vertex="1">
          <mxGeometry x="404" y="705" width="116" height="130" as="geometry"/>
        </mxCell>
        <mxCell id="RKHusOjCt89O1G1alRv0-3" value="" style="endArrow=none;html=1;exitX=0;exitY=0;exitDx=0;exitDy=0;strokeWidth=3;" parent="1" source="wVtc7gsRaQQJsOWC-e6A-37" target="wVtc7gsRaQQJsOWC-e6A-21" edge="1">
          <mxGeometry width="50" height="50" relative="1" as="geometry">
            <mxPoint x="460.3599999999997" y="621.1999999999998" as="sourcePoint"/>
            <mxPoint x="-428" y="129.37705770230446" as="targetPoint"/>
            <Array as="points">
              <mxPoint x="590" y="800"/>
            </Array>
          </mxGeometry>
        </mxCell>
        <mxCell id="wVtc7gsRaQQJsOWC-e6A-23" value="&lt;font style=&quot;font-size: 18px&quot;&gt;ورود&lt;/font&gt;" style="ellipse;whiteSpace=wrap;html=1;strokeWidth=3;" parent="1" vertex="1">
          <mxGeometry x="140" y="620" width="200" height="160" as="geometry"/>
        </mxCell>
        <mxCell id="RKHusOjCt89O1G1alRv0-7" value="" style="endArrow=none;html=1;strokeWidth=3;" parent="1" source="wVtc7gsRaQQJsOWC-e6A-75" target="wVtc7gsRaQQJsOWC-e6A-23" edge="1">
          <mxGeometry width="50" height="50" relative="1" as="geometry">
            <mxPoint x="428.45533677472577" y="1085.974295846895" as="sourcePoint"/>
            <mxPoint x="-430" y="160" as="targetPoint"/>
          </mxGeometry>
        </mxCell>
        <mxCell id="wVtc7gsRaQQJsOWC-e6A-91" value="&lt;span style=&quot;font-size: 24px&quot;&gt;تدوین و تنظیم قسمت اموزش&lt;/span&gt;" style="ellipse;whiteSpace=wrap;html=1;strokeWidth=3;" parent="1" vertex="1">
          <mxGeometry x="370" y="410" width="120" height="80" as="geometry"/>
        </mxCell>
        <mxCell id="RKHusOjCt89O1G1alRv0-8" value="" style="endArrow=none;html=1;exitX=1;exitY=0;exitDx=0;exitDy=0;strokeWidth=3;" parent="1" source="wVtc7gsRaQQJsOWC-e6A-23" target="wVtc7gsRaQQJsOWC-e6A-91" edge="1">
          <mxGeometry width="50" height="50" relative="1" as="geometry">
            <mxPoint x="27.78427124746213" y="585.8578643762689" as="sourcePoint"/>
            <mxPoint x="1520" y="98.17052339656357" as="targetPoint"/>
          </mxGeometry>
        </mxCell>
      </root>
    </mxGraphModel>
  </diagram>
</mxfile>
